<svg width="32" height="45" viewBox="0 0 32 45" fill="none" xmlns="http://www.w3.org/2000/svg">
<path d="M23.0915 0.155396C23.0915 0.155396 26.802 9.84745 10.8998 16.3575C2.25892 19.894 -4.37778 28.9582 3.54643 42.9601C4.20269 36.7015 7.01666 22.902 19.1166 19.7531C19.1166 19.7531 7.85471 24.2495 6.85987 44.6025C12.6467 45.47 26.2185 46.0529 30.2479 33.4776C35.5688 16.8628 23.0915 0.155396 23.0915 0.155396Z" fill="#8DCE97"/>
<path d="M6.86512 44.5178C19.1501 39.2829 28.0889 27.0195 29.3226 12.3797C26.8111 5.14642 23.0915 0.155396 23.0915 0.155396C23.0915 0.155396 26.802 9.84745 10.8998 16.3575C2.25892 19.894 -4.37778 28.9582 3.54643 42.9601C4.20269 36.7015 7.01666 22.902 19.1166 19.7531C19.1159 19.7531 7.88753 24.2383 6.86512 44.5178Z" fill="#8DCE97"/>
<path d="M2.32059 16.6805C2.95487 16.6805 3.46906 16.1315 3.46906 15.4542C3.46906 14.7769 2.95487 14.228 2.32059 14.228C1.68631 14.228 1.17212 14.7769 1.17212 15.4542C1.17212 16.1315 1.68631 16.6805 2.32059 16.6805Z" fill="#8DCE97"/>
<path d="M5.92991 15.1054C6.38295 15.1054 6.75021 14.713 6.75021 14.229C6.75021 13.7449 6.38295 13.3525 5.92991 13.3525C5.47688 13.3525 5.10962 13.7449 5.10962 14.229C5.10962 14.713 5.47688 15.1054 5.92991 15.1054Z" fill="#8DCE97"/>
<path d="M5.19161 8.09692C6.32422 8.09692 7.24237 7.11659 7.24237 5.90729C7.24237 4.69799 6.32422 3.71765 5.19161 3.71765C4.05902 3.71765 3.14087 4.69799 3.14087 5.90729C3.14087 7.11659 4.05902 8.09692 5.19161 8.09692Z" fill="#8DCE97"/>
<path d="M11.508 11.6016C11.8705 11.6016 12.1643 11.2877 12.1643 10.9005C12.1643 10.5133 11.8705 10.1993 11.508 10.1993C11.1456 10.1993 10.8518 10.5133 10.8518 10.9005C10.8518 11.2877 11.1456 11.6016 11.508 11.6016Z" fill="#8DCE97"/>
<path d="M17.0046 8.97295C18.0466 8.97295 18.8913 8.07103 18.8913 6.95847C18.8913 5.84589 18.0466 4.94397 17.0046 4.94397C15.9626 4.94397 15.1179 5.84589 15.1179 6.95847C15.1179 8.07103 15.9626 8.97295 17.0046 8.97295Z" fill="#8DCE97"/>
</svg>
